# xmcd CD database file
#
# Track frame offsets:
#	150
#	11177
#	24307
#	39022
#	51063
#	65644
#	80664
#	92443
#	107359
#	117374
#	134165
#	145362
#
# Disc length: 2160 seconds
#
# Revision: 0
# Processed by: cddbd v1.5.2PL0 Copyright (c) Steve Scherf et al.
# Submitted via: CDex 2.06
#
DISCID=9d086e0c
DTITLE=Rachael and Vilray - Rachael and Vilray
DYEAR=2019
DGENRE=Jazz
TTITLE0=Without A Thought For My Heart
TTITLE1=Do Friends Fall In Love?
TTITLE2=Alone At Last
TTITLE3=Treat Me Better
TTITLE4=Nosotros
TTITLE5=At Your Mother's House
TTITLE6=I Can't Go To Sleep
TTITLE7=I Love The Way You're Breaking My Heart
TTITLE8=The Laundromat Swing
TTITLE9=Go On Shining (feat. Jon Batiste)
TTITLE10=Let's Make Love On This Plane
TTITLE11=There's No True Love
EXTD=YEAR: 2019
EXTT0=
EXTT1=
EXTT2=
EXTT3=
EXTT4=
EXTT5=
EXTT6=
EXTT7=
EXTT8=
EXTT9=
EXTT10=
EXTT11=
PLAYORDER=
